<svg xmlns="http://www.w3.org/2000/svg" width="600" height="600" viewBox="0 0 600 600" fill="none">
<rect x="0" y="0" width="600" height="600" rx="90.0" ry="90.0" fill="#F9F6F1" /><g transform="translate(26.518747609926425,125.45933075529167) scale(0.9711254608632837)"><path fill-rule="evenodd" clip-rule="evenodd" d="M299.254 1.20811C304.38 0.556745 309.925 0.70323 315.334 0.846784C317.563 0.905378 319.769 0.963972 321.914 0.965925C339.023 0.98155 356.352 0.918074 373.429 1.91319C380.817 2.34385 388.315 2.79014 395.565 4.35167C421.524 9.94249 442.041 27.8419 461.5 44.8204L462.805 45.9591C463.526 46.587 464.252 47.2228 464.982 47.8624C472.128 54.1222 479.761 60.8077 487.921 65.4122C495.182 69.5089 501.804 70.8556 508.184 72.1534L508.193 72.1564C517.966 74.1437 527.176 76.0177 537.261 87.4698C548.374 100.091 548.051 119.183 547.768 135.796C547.725 138.346 547.683 140.837 547.683 143.237C547.683 145.8 547.728 148.39 547.773 150.989C547.874 156.825 547.975 162.711 547.578 168.442C547.146 174.666 545.062 180.826 540.232 184.98C530.502 193.346 519.204 192.521 507.392 191.659L505.663 191.534C505.547 175.132 501.386 159.608 490.377 147.111C480.043 135.383 465.884 128.155 450.225 127.172C433.993 126.154 418.879 131.005 406.667 141.812C391.552 155.185 387.355 172.397 386.144 191.735C384.387 191.46 382.627 191.218 380.86 191.01C379.095 190.803 377.325 190.629 375.552 190.49C373.779 190.351 372.004 190.246 370.227 190.175C369.628 190.151 369.028 190.131 368.429 190.114C367.252 190.083 366.073 190.067 364.894 190.066C363.116 190.064 361.339 190.096 359.561 190.162C357.785 190.229 356.01 190.329 354.236 190.464C352.463 190.599 350.693 190.768 348.928 190.97C348.212 191.053 347.497 191.141 346.782 191.234C345.733 191.371 344.686 191.521 343.64 191.682C341.883 191.953 340.132 192.259 338.387 192.597C336.64 192.936 334.902 193.308 333.171 193.713C331.439 194.119 329.717 194.558 328.003 195.03C327.519 195.164 327.037 195.3 326.554 195.439C325.327 195.79 324.105 196.159 322.888 196.546C321.193 197.084 319.509 197.654 317.837 198.258C317.136 198.51 316.437 198.769 315.741 199.032C314.775 199.399 313.812 199.775 312.854 200.163C311.934 200.535 311.017 200.917 310.105 201.31C309.385 201.62 308.666 201.937 307.949 202.259C307.227 202.584 306.51 202.915 305.794 203.252C304.901 203.673 304.013 204.103 303.13 204.542C295.83 208.188 289.129 212.592 282.345 217.09C275.827 212.646 269.259 208.625 262.24 205.02C229.746 189.214 199.691 188.638 164.512 192.097C161.622 171.238 159.478 156.231 142.726 141.454C142.348 141.121 141.966 140.794 141.579 140.471C141.393 140.317 141.208 140.163 141.02 140.011L140.533 139.619C139.787 139.025 139.026 138.451 138.252 137.896L137.715 137.515C137.113 137.094 136.504 136.684 135.887 136.285C135.086 135.769 134.272 135.272 133.446 134.795C132.62 134.318 131.783 133.862 130.935 133.427C130.087 132.992 129.228 132.578 128.359 132.185C127.49 131.792 126.612 131.421 125.724 131.072C124.837 130.723 123.941 130.396 123.038 130.09C122.135 129.785 121.224 129.503 120.307 129.243C119.39 128.984 118.467 128.746 117.537 128.531C117.298 128.477 117.058 128.423 116.819 128.371C116.128 128.221 115.432 128.083 114.735 127.958C113.797 127.79 112.854 127.646 111.908 127.525C110.963 127.402 110.015 127.305 109.064 127.231C108.114 127.155 107.162 127.105 106.209 127.077C105.255 127.05 104.302 127.046 103.348 127.067C102.395 127.086 101.443 127.129 100.491 127.196C99.9148 127.228 99.3387 127.268 98.7625 127.317C98.3621 127.35 97.9627 127.387 97.5643 127.428C96.9656 127.49 96.367 127.562 95.7703 127.643C95.3973 127.693 95.0242 127.747 94.6521 127.805C93.6853 127.954 92.7225 128.128 91.7635 128.326C91.3299 128.415 90.8982 128.51 90.4676 128.609C89.9441 128.729 89.4227 128.856 88.9031 128.99L88.4686 129.105L87.9598 129.242C87.3299 129.416 86.7039 129.601 86.0799 129.796C85.1453 130.087 84.2186 130.402 83.3006 130.74L82.6111 130.998C81.9256 131.26 81.2459 131.534 80.5701 131.822C79.6697 132.205 78.7791 132.61 77.8982 133.038C77.0174 133.466 76.1482 133.914 75.2898 134.385C74.4305 134.856 73.5848 135.348 72.7508 135.86C71.9168 136.373 71.0955 136.906 70.2879 137.46C69.8338 137.772 69.3846 138.089 68.9393 138.412C68.5936 138.664 68.2498 138.92 67.909 139.18C67.4969 139.493 67.0896 139.812 66.6863 140.136C66.3269 140.425 65.9705 140.718 65.618 141.016C64.8699 141.647 64.1375 142.296 63.4217 142.964C62.9734 143.382 62.532 143.806 62.0975 144.236C61.8367 144.494 61.5789 144.755 61.323 145.018C60.6414 145.72 59.9773 146.439 59.3299 147.174C48.7684 159.28 43.8748 175.147 44.9012 191.076C43.2635 191.125 41.6258 191.253 39.9881 191.411C38.9344 191.513 37.8807 191.627 36.826 191.741L36.8025 191.744C32.2918 192.233 27.7781 192.721 23.2586 192.214C19.1727 191.757 14.7234 190.472 12.1482 187.032C10.3377 184.613 9.72636 181.219 10.1717 178.265C10.8182 173.972 14.0916 171.574 17.3445 169.19L17.4353 169.125C14.5398 162.484 12.074 155.973 11.0447 148.764C9.06914 134.951 12.1785 122.897 20.6102 111.778C26.409 104.131 34.4422 97.6446 42.9812 93.3028C65.0408 82.089 103.335 76.9317 130.435 73.2823L134.545 72.7276L137.246 72.3595C140.443 69.8741 143.529 67.2286 146.617 64.5821C149.385 62.211 152.153 59.838 155.003 57.5792C163.219 51.0079 171.655 44.7316 180.311 38.7511C188.968 32.7706 197.822 27.0997 206.876 21.7384L208.393 20.8253L208.405 20.8194C215.307 16.6642 222.351 12.423 229.79 9.35557C236.754 6.48253 244.514 4.54405 251.953 3.36436C260.895 1.94542 269.865 1.9171 278.828 1.88878C285.423 1.86827 292.012 1.84678 298.586 1.27257L299.254 1.20811ZM306.426 28.7169C311.932 28.3448 317.458 28.6935 322.958 29.0392L323.698 29.086C323.69 29.6524 323.69 30.3624 323.696 31.1944C323.708 33.0372 323.748 35.4776 323.793 38.2726C324.008 51.5304 324.35 72.7687 322.522 76.0958C318.026 77.7589 298.408 77.3448 286.481 77.0939H286.423C283.216 77.0255 280.571 76.9689 278.932 76.9689L204.268 77.0167C198.315 77.1564 192.362 77.1993 186.408 77.1456C203.747 59.8663 229.297 34.6495 254.366 30.8341C259.001 30.129 263.696 30.1407 268.368 29.9191C274.773 29.6144 281.18 29.461 287.586 29.3087C293.867 29.1593 300.147 29.0099 306.426 28.7169ZM361.887 30.1261C356.348 29.8985 350.722 29.6671 345.012 29.1036C343.232 33.4571 343.663 56.3253 343.906 69.2706C343.966 72.4259 344.013 74.9913 344.016 76.5558C364.898 76.6837 385.778 76.6026 406.658 76.3136C411.223 76.2394 415.797 76.0841 420.372 75.9288C428.628 75.6495 436.888 75.3692 445.125 75.5636L446.197 75.2745C445.284 69.9552 417.498 46.5646 411.979 42.6788C396.158 31.5343 379.455 30.8487 361.887 30.1261Z" fill="#236842" />
<path fill-rule="evenodd" clip-rule="evenodd" d="M406.602 212.976C400.227 198.226 397.716 184.738 403.865 169.379C408.327 158.24 416.684 149.33 427.788 144.656C439.061 139.909 451.485 139.642 462.848 144.285C463.56 144.572 464.266 144.876 464.966 145.198C465.202 145.307 465.437 145.418 465.672 145.532C466.13 145.752 466.584 145.981 467.034 146.216C467.716 146.573 468.388 146.946 469.05 147.336C469.355 147.517 469.658 147.7 469.96 147.887C470.311 148.106 470.661 148.328 471.007 148.557C471.319 148.763 471.629 148.972 471.935 149.186C472.259 149.411 472.58 149.641 472.898 149.875C473.517 150.33 474.126 150.801 474.722 151.285C475.317 151.772 475.901 152.273 476.472 152.788C476.817 153.1 477.157 153.416 477.492 153.738C477.712 153.949 477.93 154.161 478.144 154.376C478.688 154.919 479.219 155.476 479.734 156.046C480.251 156.616 480.752 157.199 481.238 157.794C481.725 158.389 482.196 158.995 482.652 159.615C482.858 159.895 483.061 160.178 483.262 160.462C483.503 160.807 483.74 161.155 483.973 161.505C484.397 162.146 484.806 162.798 485.196 163.46C485.588 164.122 485.962 164.793 486.319 165.474L486.574 165.968L486.756 166.328C486.957 166.73 487.152 167.134 487.341 167.541C487.663 168.239 487.969 168.945 488.256 169.658C494.557 184.867 491.859 198.332 485.836 212.991C487.557 212.961 489.279 212.971 491.002 213.018C503.29 213.392 526.92 214.718 535.282 223.92C540.512 229.673 541.313 236.716 541.047 244.117L536.714 243.658C481.499 238.121 391.954 254.937 341.081 277.865C327.213 284.115 313.453 292.241 301.676 301.88C345.22 283.344 392.414 271.367 439.018 263.527C464.474 259.243 490.761 256.974 516.503 254.753L517.716 254.648C520.147 254.438 522.771 254.164 525.487 253.881C533.534 253.041 542.387 252.118 549.433 252.521C551.863 252.659 554.162 253.635 556.094 255.092C559.822 257.903 562.338 262.611 562.791 267.238C563.127 270.673 562.32 274.511 560.067 277.203C557.999 279.678 555.271 280.754 552.117 280.975C552.018 280.982 551.92 280.987 551.821 280.991L551.625 281.003C529.765 280.893 507.998 282.435 486.24 284.37C464.946 286.267 443.907 288.363 422.927 292.665C406.442 296.045 390.259 300.631 374.081 305.215C371.396 305.976 368.712 306.737 366.026 307.491C362.942 308.359 359.822 309.2 356.688 310.045C344.797 313.252 332.706 316.513 321.571 321.458L320.289 322.025C317.089 323.434 313.679 324.936 310.821 326.806C309.063 327.956 307.443 329.292 305.823 330.629C304.596 331.642 303.368 332.655 302.08 333.586C300.976 334.385 299.828 335.124 298.598 335.754C295.316 337.434 291.705 338.475 287.999 338.472C286.8 338.464 285.608 338.362 284.425 338.164C278.76 337.241 274.145 334.428 269.466 331.574C268.142 330.768 266.813 329.958 265.454 329.187C264.647 328.73 263.831 328.285 262.998 327.864C259.989 326.341 256.653 325.197 253.395 324.079C252.814 323.88 252.236 323.682 251.663 323.482C251.272 323.346 250.884 323.209 250.498 323.072C229.144 315.653 207.536 309.07 185.673 303.324L183.678 302.787C170.884 299.347 157.904 295.856 144.933 293.262C113.459 286.965 80.368 284.485 48.3466 282.373C42.7147 281.961 37.0751 281.736 31.4276 281.698C29.3661 281.694 27.0887 281.85 24.7343 282.012H24.7255C19.2479 282.388 13.3583 282.792 8.81922 281.267C5.8739 280.277 3.42761 278.238 2.12488 275.394C0.477419 271.799 0.62781 267.199 1.9657 263.533C3.27136 259.956 5.77625 256.699 9.38074 255.236C14.7733 253.044 32.6161 254.658 42.8007 255.58C44.6962 255.752 46.3261 255.9 47.5614 255.994L53.7274 256.464C73.1278 257.936 92.6893 259.421 111.939 261.945C130.737 264.487 149.399 267.788 167.928 271.852C186.456 275.915 204.788 280.726 222.924 286.283C239.197 291.223 256.198 296.54 271.718 303.522C261.496 294.949 248.84 288.284 236.841 282.539C176.307 253.552 91.3973 239.874 24.4345 243.614L24.3202 243.057L24.3114 243.013C23.955 241.263 23.5966 239.503 23.3446 237.736C22.6776 233.046 23.6571 227.919 26.6444 224.167C33.1415 216.006 47.535 214.762 58.6766 213.798L58.7557 213.792C60.9266 213.604 62.9706 213.426 64.8075 213.209C61.91 207.488 59.6434 201.34 58.7001 194.978C56.8632 182.571 59.9637 169.2 67.4774 159.099C74.9237 149.088 86.4891 142.921 98.7245 141.134C106.838 140.823 113.81 141.344 121.368 144.538C133.099 149.493 141.702 158.596 146.423 170.388C152.408 185.344 149.956 198.569 143.85 212.957C144.659 212.955 145.468 212.959 146.276 212.983C147.265 213.012 148.252 213.069 149.235 213.175C157.593 214.077 165.971 216.138 174.116 218.16C207.678 226.498 241.962 240.479 268.292 263.417C274.236 268.596 279.252 274.589 284.177 280.712C285.268 279.137 286.4 277.592 287.572 276.075C288.447 274.942 289.339 273.823 290.248 272.717C291.108 271.671 291.984 270.638 292.877 269.617C293.393 269.027 293.916 268.441 294.443 267.86C295.787 266.376 297.163 264.923 298.571 263.501C300.533 261.521 302.554 259.604 304.634 257.749C306.714 255.894 308.849 254.106 311.041 252.383C335.824 233.202 375.556 216.876 406.602 212.976ZM101.166 172.288C101.411 172.241 101.657 172.201 101.904 172.166L102.185 172.13C102.339 172.112 102.492 172.095 102.647 172.081C102.895 172.059 103.144 172.042 103.393 172.033C103.642 172.023 103.892 172.018 104.141 172.021C104.391 172.023 104.64 172.031 104.889 172.045C105.024 172.053 105.16 172.062 105.295 172.074C105.408 172.083 105.521 172.094 105.635 172.107C105.883 172.133 106.13 172.165 106.375 172.204C106.622 172.243 106.867 172.287 107.111 172.338C107.355 172.39 107.598 172.447 107.84 172.509C108.081 172.572 108.32 172.641 108.558 172.715C108.68 172.753 108.801 172.793 108.921 172.834C109.036 172.873 109.151 172.914 109.266 172.956C109.389 173.001 109.511 173.048 109.633 173.096C109.743 173.14 109.852 173.186 109.962 173.233C110.191 173.329 110.419 173.433 110.642 173.541C110.763 173.599 110.883 173.659 111.001 173.721C111.103 173.774 111.206 173.828 111.307 173.884L111.599 174.048C111.719 174.116 111.837 174.187 111.954 174.258C112.167 174.389 112.377 174.525 112.582 174.665C112.676 174.729 112.768 174.793 112.86 174.86C112.971 174.939 113.081 175.019 113.189 175.101C113.389 175.252 113.584 175.408 113.774 175.568L114.001 175.76L114.181 175.92L114.337 176.062C114.519 176.231 114.698 176.405 114.872 176.582L115.046 176.763C115.16 176.884 115.272 177.006 115.383 177.129C115.549 177.316 115.709 177.507 115.865 177.701C116.021 177.896 116.173 178.093 116.319 178.295C116.429 178.447 116.536 178.6 116.64 178.755L116.743 178.911C116.88 179.12 117.012 179.332 117.138 179.547C117.202 179.658 117.265 179.768 117.326 179.879C117.385 179.986 117.442 180.093 117.498 180.201C117.614 180.422 117.724 180.647 117.827 180.873C117.932 181.1 118.031 181.329 118.123 181.56C118.216 181.791 118.303 182.026 118.385 182.261C118.466 182.496 118.541 182.734 118.611 182.973C118.682 183.213 118.745 183.454 118.803 183.698C118.831 183.816 118.857 183.934 118.883 184.052C118.909 184.177 118.934 184.302 118.958 184.428C119.005 184.674 119.044 184.919 119.077 185.166L119.115 185.47C119.128 185.579 119.14 185.689 119.149 185.799L119.16 185.91C119.182 186.158 119.198 186.407 119.207 186.657C119.217 186.906 119.22 187.155 119.217 187.405C119.214 187.654 119.205 187.903 119.189 188.152C119.182 188.267 119.174 188.382 119.164 188.497C119.152 188.631 119.14 188.764 119.125 188.897L119.09 189.187C119.07 189.337 119.049 189.488 119.025 189.637C118.985 189.884 118.939 190.129 118.889 190.373C118.837 190.617 118.779 190.86 118.716 191.1L118.645 191.36C118.601 191.514 118.556 191.667 118.508 191.82C118.432 192.057 118.351 192.292 118.265 192.527C118.177 192.76 118.084 192.991 117.986 193.22C117.888 193.449 117.784 193.676 117.675 193.901L117.581 194.088L117.51 194.228L117.412 194.412L117.329 194.565C117.21 194.783 117.084 194.997 116.952 195.21C116.822 195.422 116.685 195.631 116.545 195.836L116.343 196.122C116.266 196.23 116.186 196.336 116.105 196.443L116.014 196.561L115.89 196.718L115.78 196.853L115.639 197.026C115.477 197.216 115.312 197.403 115.142 197.585C114.973 197.768 114.798 197.947 114.619 198.12C114.44 198.294 114.258 198.463 114.07 198.628C113.884 198.793 113.692 198.954 113.497 199.11C113.303 199.265 113.104 199.415 112.902 199.562C112.7 199.707 112.494 199.848 112.284 199.984C112.075 200.119 111.863 200.25 111.647 200.375C111.523 200.447 111.399 200.517 111.274 200.585L110.991 200.735C110.77 200.849 110.546 200.958 110.318 201.062L110.046 201.182C109.909 201.241 109.77 201.299 109.632 201.355C109.399 201.447 109.165 201.533 108.93 201.614C108.693 201.694 108.456 201.769 108.217 201.838C107.976 201.907 107.735 201.97 107.492 202.028C107.25 202.084 107.006 202.135 106.761 202.18C106.596 202.21 106.43 202.238 106.264 202.263L106.024 202.297C105.778 202.33 105.532 202.357 105.284 202.377L104.962 202.401C104.822 202.409 104.682 202.416 104.54 202.421C104.293 202.43 104.045 202.433 103.797 202.429C103.548 202.425 103.3 202.415 103.053 202.401C102.805 202.384 102.557 202.363 102.31 202.335C102.063 202.307 101.817 202.274 101.572 202.234C101.327 202.194 101.083 202.148 100.841 202.096C100.598 202.044 100.356 201.987 100.116 201.923C99.9784 201.887 99.8417 201.849 99.7059 201.808L99.4012 201.714C99.1649 201.639 98.9296 201.558 98.6971 201.471C98.4647 201.385 98.2343 201.292 98.0057 201.195C97.7772 201.096 97.5516 200.992 97.329 200.883C97.2264 200.833 97.1249 200.782 97.0233 200.729C96.9042 200.667 96.786 200.605 96.6688 200.539C96.4511 200.419 96.2362 200.294 96.0253 200.164C95.8143 200.033 95.6063 199.898 95.4012 199.757C95.1971 199.616 94.996 199.471 94.7987 199.321C94.6005 199.17 94.4061 199.015 94.2167 198.856C94.0262 198.696 93.8407 198.531 93.6591 198.362C93.4774 198.192 93.2997 198.019 93.1268 197.841C92.953 197.663 92.7841 197.482 92.619 197.295C92.455 197.11 92.2948 196.919 92.1405 196.725C91.9852 196.532 91.8348 196.333 91.6893 196.132C91.5438 195.931 91.4022 195.726 91.2675 195.518C91.1805 195.384 91.0956 195.249 91.0126 195.114L90.8768 194.884C90.7518 194.669 90.6317 194.452 90.5175 194.233C90.4032 194.012 90.2948 193.788 90.1903 193.564L90.1005 193.364L90.0155 193.166C89.9755 193.071 89.9354 192.975 89.8973 192.878C89.8534 192.769 89.8104 192.659 89.7694 192.549L89.6893 192.329L89.6376 192.18C89.5555 191.946 89.4803 191.709 89.411 191.47L89.3485 191.249C89.3036 191.084 89.2616 190.917 89.2216 190.75C89.1639 190.509 89.1122 190.266 89.0663 190.023C89.0204 189.779 88.9803 189.533 88.9471 189.287C88.913 189.041 88.8856 188.794 88.8641 188.547C88.8427 188.3 88.828 188.052 88.8182 187.803C88.8085 187.555 88.8046 187.307 88.8075 187.059C88.8104 186.811 88.8192 186.563 88.8348 186.315C88.8495 186.067 88.87 185.82 88.8973 185.573C88.9237 185.325 88.9569 185.079 88.996 184.834C89.0165 184.707 89.038 184.581 89.0614 184.455C89.0829 184.337 89.1063 184.219 89.1317 184.102C89.1825 183.859 89.2391 183.617 89.3016 183.377C89.3309 183.266 89.3622 183.155 89.3944 183.043C89.4305 182.914 89.4686 182.787 89.5087 182.661C89.5819 182.425 89.662 182.19 89.7479 181.956C89.8339 181.724 89.9257 181.493 90.0233 181.264C90.0712 181.152 90.121 181.039 90.1718 180.928C90.2235 180.814 90.2772 180.699 90.3319 180.586C90.3876 180.472 90.4442 180.358 90.5028 180.244C90.5585 180.137 90.6161 180.031 90.6747 179.924C90.7343 179.815 90.7948 179.706 90.8583 179.598C90.9198 179.491 90.9833 179.386 91.0477 179.281C91.1776 179.069 91.3124 178.86 91.452 178.656C91.5927 178.449 91.7372 178.248 91.8866 178.05C91.9657 177.946 92.0458 177.843 92.1278 177.741L92.3505 177.467C92.5096 177.278 92.6737 177.091 92.8427 176.908C92.9471 176.794 93.0536 176.682 93.162 176.572L93.3602 176.373C93.538 176.199 93.7196 176.03 93.9052 175.866C94.0907 175.699 94.2802 175.539 94.4735 175.384C94.6669 175.229 94.8641 175.077 95.0643 174.931C95.2655 174.784 95.4696 174.643 95.6776 174.507C95.7987 174.428 95.9208 174.351 96.0438 174.275L96.3104 174.115C96.5243 173.989 96.7411 173.868 96.9618 173.753C97.1815 173.638 97.4042 173.529 97.6298 173.424C97.8544 173.32 98.0819 173.221 98.3124 173.128L98.6151 173.01C98.746 172.96 98.8768 172.912 99.0096 172.866C99.1317 172.824 99.2538 172.783 99.3788 172.742L99.5194 172.699L99.7196 172.638L99.8973 172.587L100.068 172.54C100.191 172.507 100.314 172.476 100.438 172.446C100.68 172.387 100.923 172.335 101.166 172.288ZM445.616 172.216C445.369 172.227 445.122 172.244 444.875 172.268C444.628 172.291 444.383 172.321 444.137 172.356C444.026 172.371 443.916 172.389 443.806 172.407C443.672 172.429 443.538 172.453 443.405 172.48C443.254 172.509 443.103 172.54 442.953 172.574L442.679 172.64C442.438 172.699 442.199 172.764 441.962 172.835C441.808 172.881 441.656 172.93 441.505 172.981L441.256 173.066C441.022 173.149 440.791 173.237 440.561 173.33C440.398 173.398 440.236 173.468 440.075 173.54L439.882 173.629C439.657 173.735 439.435 173.845 439.217 173.96C438.998 174.076 438.781 174.198 438.569 174.324C438.356 174.451 438.146 174.583 437.94 174.72C437.733 174.857 437.53 174.998 437.331 175.146C437.132 175.292 436.935 175.444 436.743 175.601C436.551 175.757 436.363 175.917 436.179 176.083C435.995 176.249 435.815 176.419 435.639 176.594C435.464 176.768 435.292 176.947 435.125 177.129L434.974 177.298C434.859 177.428 434.748 177.559 434.638 177.691C434.48 177.882 434.327 178.076 434.179 178.275C434.099 178.382 434.019 178.491 433.941 178.6C433.876 178.693 433.812 178.786 433.749 178.881C433.61 179.086 433.476 179.295 433.349 179.508L433.189 179.778C433.118 179.902 433.048 180.027 432.979 180.153C432.862 180.37 432.751 180.591 432.643 180.815C432.537 181.038 432.436 181.265 432.341 181.492C432.245 181.721 432.155 181.952 432.071 182.186C431.987 182.418 431.908 182.653 431.836 182.89C431.764 183.127 431.696 183.366 431.635 183.606C431.573 183.846 431.518 184.087 431.47 184.329C431.421 184.573 431.377 184.817 431.34 185.062C431.303 185.306 431.271 185.552 431.247 185.799C431.231 185.949 431.219 186.099 431.208 186.249L431.19 186.538C431.177 186.786 431.17 187.033 431.169 187.282C431.168 187.53 431.174 187.778 431.184 188.025C431.196 188.272 431.214 188.519 431.237 188.766L431.26 188.983C431.278 189.157 431.301 189.33 431.326 189.503C431.361 189.748 431.402 189.992 431.45 190.236C431.498 190.479 431.552 190.721 431.611 190.96C431.67 191.201 431.735 191.441 431.807 191.678C431.878 191.915 431.954 192.151 432.037 192.384C432.12 192.617 432.208 192.848 432.302 193.077C432.396 193.307 432.497 193.533 432.601 193.758C432.707 193.983 432.817 194.204 432.932 194.423C433.05 194.641 433.171 194.857 433.298 195.07C433.361 195.177 433.427 195.283 433.493 195.388C433.558 195.492 433.625 195.596 433.693 195.699C433.83 195.906 433.973 196.109 434.119 196.308C434.266 196.507 434.417 196.702 434.574 196.895C434.73 197.086 434.891 197.275 435.057 197.458L435.231 197.648C435.342 197.767 435.454 197.883 435.568 197.998C435.742 198.174 435.922 198.345 436.104 198.513C436.288 198.679 436.475 198.842 436.666 198.999C436.791 199.102 436.917 199.203 437.045 199.302L437.25 199.457C437.448 199.607 437.65 199.749 437.856 199.888C438.062 200.026 438.27 200.158 438.483 200.286C438.589 200.35 438.695 200.412 438.803 200.474C438.91 200.535 439.018 200.596 439.128 200.655C439.346 200.772 439.567 200.884 439.791 200.991C440.015 201.097 440.24 201.199 440.469 201.293C440.697 201.389 440.929 201.479 441.162 201.564C441.394 201.648 441.629 201.726 441.866 201.799C442.103 201.871 442.342 201.938 442.582 201.998C442.822 202.059 443.063 202.115 443.306 202.163C443.549 202.212 443.793 202.255 444.038 202.292C444.282 202.329 444.528 202.361 444.775 202.386C445.021 202.41 445.268 202.429 445.516 202.443C445.764 202.455 446.011 202.462 446.258 202.462C446.506 202.463 446.754 202.458 447.001 202.447C447.248 202.435 447.495 202.417 447.742 202.394C447.988 202.37 448.234 202.341 448.478 202.305C448.724 202.27 448.969 202.228 449.211 202.18C449.369 202.149 449.525 202.116 449.682 202.08L449.935 202.02C450.176 201.959 450.415 201.895 450.652 201.824C450.815 201.775 450.977 201.723 451.14 201.668L451.357 201.593C451.59 201.51 451.821 201.421 452.051 201.326C452.279 201.233 452.506 201.133 452.729 201.028C452.955 200.923 453.176 200.813 453.393 200.697C453.612 200.58 453.829 200.458 454.042 200.332C454.255 200.206 454.464 200.074 454.67 199.937C454.876 199.8 455.079 199.658 455.278 199.511C455.408 199.415 455.536 199.318 455.663 199.218L455.865 199.056C455.956 198.982 456.046 198.906 456.136 198.828C456.234 198.744 456.332 198.659 456.428 198.573C456.612 198.408 456.792 198.238 456.967 198.063C457.142 197.888 457.314 197.709 457.481 197.527C457.647 197.343 457.809 197.157 457.968 196.966C458.045 196.872 458.121 196.778 458.196 196.682C458.274 196.582 458.35 196.483 458.426 196.382C458.574 196.183 458.717 195.981 458.854 195.776C458.993 195.571 459.127 195.362 459.255 195.15C459.383 194.938 459.505 194.723 459.622 194.504C459.739 194.286 459.851 194.066 459.958 193.843L460.07 193.601C460.137 193.457 460.2 193.312 460.261 193.165C460.356 192.937 460.446 192.706 460.531 192.474C460.615 192.241 460.693 192.006 460.766 191.769C460.839 191.533 460.905 191.294 460.966 191.055C461.026 190.815 461.082 190.574 461.131 190.33C461.161 190.183 461.189 190.034 461.215 189.886C461.23 189.791 461.246 189.696 461.26 189.6C461.297 189.355 461.328 189.11 461.352 188.863L461.382 188.543C461.393 188.404 461.403 188.263 461.41 188.122C461.417 187.998 461.422 187.874 461.426 187.75C461.429 187.627 461.431 187.504 461.431 187.381C461.432 187.133 461.427 186.886 461.415 186.639C461.403 186.391 461.387 186.145 461.363 185.898C461.34 185.651 461.31 185.406 461.275 185.16C461.239 184.915 461.197 184.671 461.15 184.429C461.102 184.186 461.05 183.945 460.99 183.703C460.931 183.464 460.865 183.225 460.794 182.988C460.724 182.75 460.646 182.515 460.564 182.282C460.481 182.048 460.392 181.818 460.299 181.589C460.205 181.36 460.105 181.133 460 180.908C459.895 180.685 459.785 180.463 459.669 180.244C459.553 180.026 459.432 179.81 459.305 179.598C459.179 179.384 459.047 179.175 458.91 178.969C458.773 178.763 458.632 178.56 458.485 178.36C458.338 178.16 458.185 177.965 458.03 177.774C457.873 177.581 457.712 177.394 457.547 177.209C457.44 177.091 457.332 176.975 457.222 176.86C457.161 176.795 457.099 176.732 457.037 176.669C456.862 176.494 456.683 176.324 456.501 176.157C456.318 175.99 456.132 175.827 455.941 175.669C455.75 175.512 455.555 175.359 455.357 175.21C455.255 175.134 455.151 175.059 455.047 174.985C454.949 174.915 454.85 174.847 454.752 174.781C454.547 174.643 454.338 174.51 454.126 174.382C453.914 174.253 453.699 174.131 453.481 174.013C453.263 173.896 453.042 173.783 452.819 173.677C452.596 173.57 452.37 173.469 452.141 173.373C451.913 173.279 451.682 173.189 451.45 173.104C451.218 173.02 450.982 172.942 450.746 172.868C450.51 172.796 450.271 172.729 450.031 172.667C449.791 172.607 449.55 172.552 449.307 172.502C449.065 172.453 448.821 172.41 448.577 172.372C448.332 172.335 448.086 172.304 447.84 172.279C447.594 172.254 447.348 172.235 447.099 172.222C446.852 172.208 446.605 172.201 446.358 172.2C446.11 172.199 445.863 172.204 445.616 172.216Z" fill="#236842" />
</g></svg>