<svg width="822" height="490" viewBox="0 0 822 490" fill="none" xmlns="http://www.w3.org/2000/svg">
<path fill-rule="evenodd" clip-rule="evenodd" d="M418.254 1.20811C423.38 0.556745 428.925 0.70323 434.334 0.846784C436.563 0.905378 438.769 0.963972 440.914 0.965925C458.023 0.98155 475.352 0.918074 492.429 1.91319C499.817 2.34385 507.315 2.79014 514.565 4.35167C540.524 9.94249 561.041 27.8419 580.5 44.8204L581.805 45.9591C582.526 46.587 583.252 47.2228 583.982 47.8624C591.128 54.1222 598.761 60.8077 606.921 65.4122C614.182 69.5089 620.804 70.8556 627.184 72.1534L627.193 72.1564C636.966 74.1437 646.176 76.0177 656.261 87.4698C667.374 100.091 667.051 119.183 666.768 135.796C666.725 138.346 666.683 140.837 666.683 143.237C666.683 145.8 666.728 148.39 666.773 150.989C666.874 156.825 666.975 162.711 666.578 168.442C666.146 174.666 664.062 180.826 659.232 184.98C649.502 193.346 638.204 192.521 626.392 191.659L624.663 191.534C624.547 175.132 620.386 159.608 609.377 147.111C599.043 135.383 584.884 128.155 569.225 127.172C552.993 126.154 537.879 131.005 525.667 141.812C510.552 155.185 506.355 172.397 505.144 191.735C503.387 191.46 501.627 191.218 499.86 191.01C498.095 190.803 496.325 190.629 494.552 190.49C492.779 190.351 491.004 190.246 489.227 190.175C488.628 190.151 488.028 190.131 487.429 190.114C486.252 190.083 485.073 190.067 483.894 190.066C482.116 190.064 480.339 190.096 478.561 190.162C476.785 190.229 475.01 190.329 473.236 190.464C471.463 190.599 469.693 190.768 467.928 190.97C467.212 191.053 466.497 191.141 465.782 191.234C464.733 191.371 463.686 191.521 462.64 191.682C460.883 191.953 459.132 192.259 457.387 192.597C455.64 192.936 453.902 193.308 452.171 193.713C450.439 194.119 448.717 194.558 447.003 195.03C446.519 195.164 446.037 195.3 445.554 195.439C444.327 195.79 443.105 196.159 441.888 196.546C440.193 197.084 438.509 197.654 436.837 198.258C436.136 198.51 435.437 198.769 434.741 199.032C433.775 199.399 432.812 199.775 431.854 200.163C430.934 200.535 430.017 200.917 429.105 201.31C428.385 201.62 427.666 201.937 426.949 202.259C426.227 202.584 425.51 202.915 424.794 203.252C423.901 203.673 423.013 204.103 422.13 204.542C414.83 208.188 408.129 212.592 401.345 217.09C394.827 212.646 388.259 208.625 381.24 205.02C348.746 189.214 318.691 188.638 283.512 192.097C280.622 171.238 278.478 156.231 261.726 141.454C261.348 141.121 260.966 140.794 260.579 140.471C260.393 140.317 260.208 140.163 260.02 140.011L259.533 139.619C258.787 139.025 258.026 138.451 257.252 137.896L256.715 137.515C256.113 137.094 255.504 136.684 254.887 136.285C254.086 135.769 253.272 135.272 252.446 134.795C251.62 134.318 250.783 133.862 249.935 133.427C249.087 132.992 248.228 132.578 247.359 132.185C246.49 131.792 245.612 131.421 244.724 131.072C243.837 130.723 242.941 130.396 242.038 130.09C241.135 129.785 240.224 129.503 239.307 129.243C238.39 128.984 237.467 128.746 236.537 128.531C236.298 128.477 236.058 128.423 235.819 128.371C235.128 128.221 234.432 128.083 233.735 127.958C232.797 127.79 231.854 127.646 230.908 127.525C229.963 127.402 229.015 127.305 228.064 127.231C227.114 127.155 226.162 127.105 225.209 127.077C224.255 127.05 223.302 127.046 222.348 127.067C221.395 127.086 220.443 127.129 219.491 127.196C218.915 127.228 218.339 127.268 217.762 127.317C217.362 127.35 216.963 127.387 216.564 127.428C215.966 127.49 215.367 127.562 214.77 127.643C214.397 127.693 214.024 127.747 213.652 127.805C212.685 127.954 211.722 128.128 210.763 128.326C210.33 128.415 209.898 128.51 209.468 128.609C208.944 128.729 208.423 128.856 207.903 128.99L207.469 129.105L206.96 129.242C206.33 129.416 205.704 129.601 205.08 129.796C204.145 130.087 203.219 130.402 202.301 130.74L201.611 130.998C200.926 131.26 200.246 131.534 199.57 131.822C198.67 132.205 197.779 132.61 196.898 133.038C196.017 133.466 195.148 133.914 194.29 134.385C193.43 134.856 192.585 135.348 191.751 135.86C190.917 136.373 190.096 136.906 189.288 137.46C188.834 137.772 188.385 138.089 187.939 138.412C187.594 138.664 187.25 138.92 186.909 139.18C186.497 139.493 186.09 139.812 185.686 140.136C185.327 140.425 184.971 140.718 184.618 141.016C183.87 141.647 183.137 142.296 182.422 142.964C181.973 143.382 181.532 143.806 181.097 144.236C180.837 144.494 180.579 144.755 180.323 145.018C179.641 145.72 178.977 146.439 178.33 147.174C167.768 159.28 162.875 175.147 163.901 191.076C162.263 191.125 160.626 191.253 158.988 191.411C157.934 191.513 156.881 191.627 155.826 191.741L155.803 191.744C151.292 192.233 146.778 192.721 142.259 192.214C138.173 191.757 133.723 190.472 131.148 187.032C129.338 184.613 128.726 181.219 129.172 178.265C129.818 173.972 133.092 171.574 136.345 169.19L136.435 169.125C133.54 162.484 131.074 155.973 130.045 148.764C128.069 134.951 131.179 122.897 139.61 111.778C145.409 104.131 153.442 97.6446 161.981 93.3028C184.041 82.089 222.335 76.9317 249.435 73.2823L253.545 72.7276L256.246 72.3595C259.443 69.8741 262.529 67.2286 265.617 64.5821C268.385 62.211 271.153 59.838 274.003 57.5792C282.219 51.0079 290.655 44.7316 299.311 38.7511C307.968 32.7706 316.822 27.0997 325.876 21.7384L327.393 20.8253L327.405 20.8194C334.307 16.6642 341.351 12.423 348.79 9.35557C355.754 6.48253 363.514 4.54405 370.953 3.36436C379.895 1.94542 388.865 1.9171 397.828 1.88878C404.423 1.86827 411.012 1.84678 417.586 1.27257L418.254 1.20811ZM425.426 28.7169C430.932 28.3448 436.458 28.6935 441.958 29.0392L442.698 29.086C442.69 29.6524 442.69 30.3624 442.696 31.1944C442.708 33.0372 442.748 35.4776 442.793 38.2726C443.008 51.5304 443.35 72.7687 441.522 76.0958C437.026 77.7589 417.408 77.3448 405.481 77.0939H405.423C402.216 77.0255 399.571 76.9689 397.932 76.9689L323.268 77.0167C317.315 77.1564 311.362 77.1993 305.408 77.1456C322.747 59.8663 348.297 34.6495 373.366 30.8341C378.001 30.129 382.696 30.1407 387.368 29.9191C393.773 29.6144 400.18 29.461 406.586 29.3087C412.867 29.1593 419.147 29.0099 425.426 28.7169ZM480.887 30.1261C475.348 29.8985 469.722 29.6671 464.012 29.1036C462.232 33.4571 462.663 56.3253 462.906 69.2706C462.966 72.4259 463.013 74.9913 463.016 76.5558C483.898 76.6837 504.778 76.6026 525.658 76.3136C530.223 76.2394 534.797 76.0841 539.372 75.9288C547.628 75.6495 555.888 75.3692 564.125 75.5636L565.197 75.2745C564.284 69.9552 536.498 46.5646 530.979 42.6788C515.158 31.5343 498.455 30.8487 480.887 30.1261Z" fill="#236842"/>
<path fill-rule="evenodd" clip-rule="evenodd" d="M525.602 212.976C519.227 198.226 516.716 184.738 522.865 169.379C527.327 158.24 535.684 149.33 546.788 144.656C558.061 139.909 570.485 139.642 581.848 144.285C582.56 144.572 583.266 144.876 583.966 145.198C584.202 145.307 584.437 145.418 584.672 145.532C585.13 145.752 585.584 145.981 586.034 146.216C586.716 146.573 587.388 146.946 588.05 147.336C588.355 147.517 588.658 147.7 588.96 147.887C589.311 148.106 589.661 148.328 590.007 148.557C590.319 148.763 590.629 148.972 590.935 149.186C591.259 149.411 591.58 149.641 591.898 149.875C592.517 150.33 593.126 150.801 593.722 151.285C594.317 151.772 594.901 152.273 595.472 152.788C595.817 153.1 596.157 153.416 596.492 153.738C596.712 153.949 596.93 154.161 597.144 154.376C597.688 154.919 598.219 155.476 598.734 156.046C599.251 156.616 599.752 157.199 600.238 157.794C600.725 158.389 601.196 158.995 601.652 159.615C601.858 159.895 602.061 160.178 602.262 160.462C602.503 160.807 602.74 161.155 602.973 161.505C603.397 162.146 603.806 162.798 604.196 163.46C604.588 164.122 604.962 164.793 605.319 165.474L605.574 165.968L605.756 166.328C605.957 166.73 606.152 167.134 606.341 167.541C606.663 168.239 606.969 168.945 607.256 169.658C613.557 184.867 610.859 198.332 604.836 212.991C606.557 212.961 608.279 212.971 610.002 213.018C622.29 213.392 645.92 214.718 654.282 223.92C659.512 229.673 660.313 236.716 660.047 244.117L655.714 243.658C600.499 238.121 510.954 254.937 460.081 277.865C446.213 284.115 432.453 292.241 420.676 301.88C464.22 283.344 511.414 271.367 558.018 263.527C583.474 259.243 609.761 256.974 635.503 254.753L636.716 254.648C639.147 254.438 641.771 254.164 644.487 253.881C652.534 253.041 661.387 252.118 668.433 252.521C670.863 252.659 673.162 253.635 675.094 255.092C678.822 257.903 681.338 262.611 681.791 267.238C682.127 270.673 681.32 274.511 679.067 277.203C676.999 279.678 674.271 280.754 671.117 280.975C671.018 280.982 670.92 280.987 670.821 280.991L670.625 281.003C648.765 280.893 626.998 282.435 605.24 284.37C583.946 286.267 562.907 288.363 541.927 292.665C525.442 296.045 509.259 300.631 493.081 305.215C490.396 305.976 487.712 306.737 485.026 307.491C481.942 308.359 478.822 309.2 475.688 310.045C463.797 313.252 451.706 316.513 440.571 321.458L439.289 322.025C436.089 323.434 432.679 324.936 429.821 326.806C428.063 327.956 426.443 329.292 424.823 330.629C423.596 331.642 422.368 332.655 421.08 333.586C419.976 334.385 418.828 335.124 417.598 335.754C414.316 337.434 410.705 338.475 406.999 338.472C405.8 338.464 404.608 338.362 403.425 338.164C397.76 337.241 393.145 334.428 388.466 331.574C387.142 330.768 385.813 329.958 384.454 329.187C383.647 328.73 382.831 328.285 381.998 327.864C378.989 326.341 375.653 325.197 372.395 324.079C371.814 323.88 371.236 323.682 370.663 323.482C370.272 323.346 369.884 323.209 369.498 323.072C348.144 315.653 326.536 309.07 304.673 303.324L302.678 302.787C289.884 299.347 276.904 295.856 263.933 293.262C232.459 286.965 199.368 284.485 167.347 282.373C161.715 281.961 156.075 281.736 150.428 281.698C148.366 281.694 146.089 281.85 143.734 282.012H143.725C138.248 282.388 132.358 282.792 127.819 281.267C124.874 280.277 122.428 278.238 121.125 275.394C119.477 271.799 119.628 267.199 120.966 263.533C122.271 259.956 124.776 256.699 128.381 255.236C133.773 253.044 151.616 254.658 161.801 255.58C163.696 255.752 165.326 255.9 166.561 255.994L172.727 256.464C192.128 257.936 211.689 259.421 230.939 261.945C249.737 264.487 268.399 267.788 286.928 271.852C305.456 275.915 323.788 280.726 341.924 286.283C358.197 291.223 375.198 296.54 390.718 303.522C380.496 294.949 367.84 288.284 355.841 282.539C295.307 253.552 210.397 239.874 143.434 243.614L143.32 243.057L143.311 243.013C142.955 241.263 142.597 239.503 142.345 237.736C141.678 233.046 142.657 227.919 145.644 224.167C152.141 216.006 166.535 214.762 177.677 213.798L177.756 213.792C179.927 213.604 181.971 213.426 183.807 213.209C180.91 207.488 178.643 201.34 177.7 194.978C175.863 182.571 178.964 169.2 186.477 159.099C193.924 149.088 205.489 142.921 217.724 141.134C225.838 140.823 232.81 141.344 240.368 144.538C252.099 149.493 260.702 158.596 265.423 170.388C271.408 185.344 268.956 198.569 262.85 212.957C263.659 212.955 264.468 212.959 265.276 212.983C266.265 213.012 267.252 213.069 268.235 213.175C276.593 214.077 284.971 216.138 293.116 218.16C326.678 226.498 360.962 240.479 387.292 263.417C393.236 268.596 398.252 274.589 403.177 280.712C404.268 279.137 405.4 277.592 406.572 276.075C407.447 274.942 408.339 273.823 409.248 272.717C410.108 271.671 410.984 270.638 411.877 269.617C412.393 269.027 412.916 268.441 413.443 267.86C414.787 266.376 416.163 264.923 417.571 263.501C419.533 261.521 421.554 259.604 423.634 257.749C425.714 255.894 427.849 254.106 430.041 252.383C454.824 233.202 494.556 216.876 525.602 212.976ZM220.166 172.288C220.411 172.241 220.657 172.201 220.904 172.166L221.185 172.13C221.339 172.112 221.492 172.095 221.647 172.081C221.895 172.059 222.144 172.042 222.393 172.033C222.642 172.023 222.892 172.018 223.141 172.021C223.391 172.023 223.64 172.031 223.889 172.045C224.024 172.053 224.16 172.062 224.295 172.074C224.408 172.083 224.521 172.094 224.635 172.107C224.883 172.133 225.13 172.165 225.375 172.204C225.622 172.243 225.867 172.287 226.111 172.338C226.355 172.39 226.598 172.447 226.84 172.509C227.081 172.572 227.32 172.641 227.558 172.715C227.68 172.753 227.801 172.793 227.921 172.834C228.036 172.873 228.151 172.914 228.266 172.956C228.389 173.001 228.511 173.048 228.633 173.096C228.743 173.14 228.852 173.186 228.962 173.233C229.191 173.329 229.419 173.433 229.642 173.541C229.763 173.599 229.883 173.659 230.001 173.721C230.103 173.774 230.206 173.828 230.307 173.884L230.599 174.048C230.719 174.116 230.837 174.187 230.954 174.258C231.167 174.389 231.377 174.525 231.582 174.665C231.676 174.729 231.768 174.793 231.86 174.86C231.971 174.939 232.081 175.019 232.189 175.101C232.389 175.252 232.584 175.408 232.774 175.568L233.001 175.76L233.181 175.92L233.337 176.062C233.519 176.231 233.698 176.405 233.872 176.582L234.046 176.763C234.16 176.884 234.272 177.006 234.383 177.129C234.549 177.316 234.709 177.507 234.865 177.701C235.021 177.896 235.173 178.093 235.319 178.295C235.429 178.447 235.536 178.6 235.64 178.755L235.743 178.911C235.88 179.12 236.012 179.332 236.138 179.547C236.202 179.658 236.265 179.768 236.326 179.879C236.385 179.986 236.442 180.093 236.498 180.201C236.614 180.422 236.724 180.647 236.827 180.873C236.932 181.1 237.031 181.329 237.123 181.56C237.216 181.791 237.303 182.026 237.385 182.261C237.466 182.496 237.541 182.734 237.611 182.973C237.682 183.213 237.745 183.454 237.803 183.698C237.831 183.816 237.857 183.934 237.883 184.052C237.909 184.177 237.934 184.302 237.958 184.428C238.005 184.674 238.044 184.919 238.077 185.166L238.115 185.47C238.128 185.579 238.14 185.689 238.149 185.799L238.16 185.91C238.182 186.158 238.198 186.407 238.207 186.657C238.217 186.906 238.22 187.155 238.217 187.405C238.214 187.654 238.205 187.903 238.189 188.152C238.182 188.267 238.174 188.382 238.164 188.497C238.152 188.631 238.14 188.764 238.125 188.897L238.09 189.187C238.07 189.337 238.049 189.488 238.025 189.637C237.985 189.884 237.939 190.129 237.889 190.373C237.837 190.617 237.779 190.86 237.716 191.1L237.645 191.36C237.601 191.514 237.556 191.667 237.508 191.82C237.432 192.057 237.351 192.292 237.265 192.527C237.177 192.76 237.084 192.991 236.986 193.22C236.888 193.449 236.784 193.676 236.675 193.901L236.581 194.088L236.51 194.228L236.412 194.412L236.329 194.565C236.21 194.783 236.084 194.997 235.952 195.21C235.822 195.422 235.685 195.631 235.545 195.836L235.343 196.122C235.266 196.23 235.186 196.336 235.105 196.443L235.014 196.561L234.89 196.718L234.78 196.853L234.639 197.026C234.477 197.216 234.312 197.403 234.142 197.585C233.973 197.768 233.798 197.947 233.619 198.12C233.44 198.294 233.258 198.463 233.07 198.628C232.884 198.793 232.692 198.954 232.497 199.11C232.303 199.265 232.104 199.415 231.902 199.562C231.7 199.707 231.494 199.848 231.284 199.984C231.075 200.119 230.863 200.25 230.647 200.375C230.523 200.447 230.399 200.517 230.274 200.585L229.991 200.735C229.77 200.849 229.546 200.958 229.318 201.062L229.046 201.182C228.909 201.241 228.77 201.299 228.632 201.355C228.399 201.447 228.165 201.533 227.93 201.614C227.693 201.694 227.456 201.769 227.217 201.838C226.976 201.907 226.735 201.97 226.492 202.028C226.25 202.084 226.006 202.135 225.761 202.18C225.596 202.21 225.43 202.238 225.264 202.263L225.024 202.297C224.778 202.33 224.532 202.357 224.284 202.377L223.962 202.401C223.822 202.409 223.682 202.416 223.54 202.421C223.293 202.43 223.045 202.433 222.797 202.429C222.548 202.425 222.3 202.415 222.053 202.401C221.805 202.384 221.557 202.363 221.31 202.335C221.063 202.307 220.817 202.274 220.572 202.234C220.327 202.194 220.083 202.148 219.841 202.096C219.598 202.044 219.356 201.987 219.116 201.923C218.978 201.887 218.842 201.849 218.706 201.808L218.401 201.714C218.165 201.639 217.93 201.558 217.697 201.471C217.465 201.385 217.234 201.292 217.006 201.195C216.777 201.096 216.552 200.992 216.329 200.883C216.226 200.833 216.125 200.782 216.023 200.729C215.904 200.667 215.786 200.605 215.669 200.539C215.451 200.419 215.236 200.294 215.025 200.164C214.814 200.033 214.606 199.898 214.401 199.757C214.197 199.616 213.996 199.471 213.799 199.321C213.6 199.17 213.406 199.015 213.217 198.856C213.026 198.696 212.841 198.531 212.659 198.362C212.477 198.192 212.3 198.019 212.127 197.841C211.953 197.663 211.784 197.482 211.619 197.295C211.455 197.11 211.295 196.919 211.141 196.725C210.985 196.532 210.835 196.333 210.689 196.132C210.544 195.931 210.402 195.726 210.267 195.518C210.181 195.384 210.096 195.249 210.013 195.114L209.877 194.884C209.752 194.669 209.632 194.452 209.517 194.233C209.403 194.012 209.295 193.788 209.19 193.564L209.1 193.364L209.016 193.166C208.975 193.071 208.935 192.975 208.897 192.878C208.853 192.769 208.81 192.659 208.769 192.549L208.689 192.329L208.638 192.18C208.556 191.946 208.48 191.709 208.411 191.47L208.349 191.249C208.304 191.084 208.262 190.917 208.222 190.75C208.164 190.509 208.112 190.266 208.066 190.023C208.02 189.779 207.98 189.533 207.947 189.287C207.913 189.041 207.886 188.794 207.864 188.547C207.843 188.3 207.828 188.052 207.818 187.803C207.808 187.555 207.805 187.307 207.807 187.059C207.81 186.811 207.819 186.563 207.835 186.315C207.849 186.067 207.87 185.82 207.897 185.573C207.924 185.325 207.957 185.079 207.996 184.834C208.016 184.707 208.038 184.581 208.061 184.455C208.083 184.337 208.106 184.219 208.132 184.102C208.182 183.859 208.239 183.617 208.302 183.377C208.331 183.266 208.362 183.155 208.394 183.043C208.431 182.914 208.469 182.787 208.509 182.661C208.582 182.425 208.662 182.19 208.748 181.956C208.834 181.724 208.926 181.493 209.023 181.264C209.071 181.152 209.121 181.039 209.172 180.928C209.224 180.814 209.277 180.699 209.332 180.586C209.388 180.472 209.444 180.358 209.503 180.244C209.558 180.137 209.616 180.031 209.675 179.924C209.734 179.815 209.795 179.706 209.858 179.598C209.92 179.491 209.983 179.386 210.048 179.281C210.178 179.069 210.312 178.86 210.452 178.656C210.593 178.449 210.737 178.248 210.887 178.05C210.966 177.946 211.046 177.843 211.128 177.741L211.35 177.467C211.51 177.278 211.674 177.091 211.843 176.908C211.947 176.794 212.054 176.682 212.162 176.572L212.36 176.373C212.538 176.199 212.72 176.03 212.905 175.866C213.091 175.699 213.28 175.539 213.474 175.384C213.667 175.229 213.864 175.077 214.064 174.931C214.266 174.784 214.47 174.643 214.678 174.507C214.799 174.428 214.921 174.351 215.044 174.275L215.31 174.115C215.524 173.989 215.741 173.868 215.962 173.753C216.182 173.638 216.404 173.529 216.63 173.424C216.854 173.32 217.082 173.221 217.312 173.128L217.615 173.01C217.746 172.96 217.877 172.912 218.01 172.866C218.132 172.824 218.254 172.783 218.379 172.742L218.519 172.699L218.72 172.638L218.897 172.587L219.068 172.54C219.191 172.507 219.314 172.476 219.438 172.446C219.68 172.387 219.923 172.335 220.166 172.288ZM564.616 172.216C564.369 172.227 564.122 172.244 563.875 172.268C563.628 172.291 563.383 172.321 563.137 172.356C563.026 172.371 562.916 172.389 562.806 172.407C562.672 172.429 562.538 172.453 562.405 172.48C562.254 172.509 562.103 172.54 561.953 172.574L561.679 172.64C561.438 172.699 561.199 172.764 560.962 172.835C560.808 172.881 560.656 172.93 560.505 172.981L560.256 173.066C560.022 173.149 559.791 173.237 559.561 173.33C559.398 173.398 559.236 173.468 559.075 173.54L558.882 173.629C558.657 173.735 558.435 173.845 558.217 173.96C557.998 174.076 557.781 174.198 557.569 174.324C557.356 174.451 557.146 174.583 556.94 174.72C556.733 174.857 556.53 174.998 556.331 175.146C556.132 175.292 555.935 175.444 555.743 175.601C555.551 175.757 555.363 175.917 555.179 176.083C554.995 176.249 554.815 176.419 554.639 176.594C554.464 176.768 554.292 176.947 554.125 177.129L553.974 177.298C553.859 177.428 553.748 177.559 553.638 177.691C553.48 177.882 553.327 178.076 553.179 178.275C553.099 178.382 553.019 178.491 552.941 178.6C552.876 178.693 552.812 178.786 552.749 178.881C552.61 179.086 552.476 179.295 552.349 179.508L552.189 179.778C552.118 179.902 552.048 180.027 551.979 180.153C551.862 180.37 551.751 180.591 551.643 180.815C551.537 181.038 551.436 181.265 551.341 181.492C551.245 181.721 551.155 181.952 551.071 182.186C550.987 182.418 550.908 182.653 550.836 182.89C550.764 183.127 550.696 183.366 550.635 183.606C550.573 183.846 550.518 184.087 550.47 184.329C550.421 184.573 550.377 184.817 550.34 185.062C550.303 185.306 550.271 185.552 550.247 185.799C550.231 185.949 550.219 186.099 550.208 186.249L550.19 186.538C550.177 186.786 550.17 187.033 550.169 187.282C550.168 187.53 550.174 187.778 550.184 188.025C550.196 188.272 550.214 188.519 550.237 188.766L550.26 188.983C550.278 189.157 550.301 189.33 550.326 189.503C550.361 189.748 550.402 189.992 550.45 190.236C550.498 190.479 550.552 190.721 550.611 190.96C550.67 191.201 550.735 191.441 550.807 191.678C550.878 191.915 550.954 192.151 551.037 192.384C551.12 192.617 551.208 192.848 551.302 193.077C551.396 193.307 551.497 193.533 551.601 193.758C551.707 193.983 551.817 194.204 551.932 194.423C552.05 194.641 552.171 194.857 552.298 195.07C552.361 195.177 552.427 195.283 552.493 195.388C552.558 195.492 552.625 195.596 552.693 195.699C552.83 195.906 552.973 196.109 553.119 196.308C553.266 196.507 553.417 196.702 553.574 196.895C553.73 197.086 553.891 197.275 554.057 197.458L554.231 197.648C554.342 197.767 554.454 197.883 554.568 197.998C554.742 198.174 554.922 198.345 555.104 198.513C555.288 198.679 555.475 198.842 555.666 198.999C555.791 199.102 555.917 199.203 556.045 199.302L556.25 199.457C556.448 199.607 556.65 199.749 556.856 199.888C557.062 200.026 557.27 200.158 557.483 200.286C557.589 200.35 557.695 200.412 557.803 200.474C557.91 200.535 558.018 200.596 558.128 200.655C558.346 200.772 558.567 200.884 558.791 200.991C559.015 201.097 559.24 201.199 559.469 201.293C559.697 201.389 559.929 201.479 560.162 201.564C560.394 201.648 560.629 201.726 560.866 201.799C561.103 201.871 561.342 201.938 561.582 201.998C561.822 202.059 562.063 202.115 562.306 202.163C562.549 202.212 562.793 202.255 563.038 202.292C563.282 202.329 563.528 202.361 563.775 202.386C564.021 202.41 564.268 202.429 564.516 202.443C564.764 202.455 565.011 202.462 565.258 202.462C565.506 202.463 565.754 202.458 566.001 202.447C566.248 202.435 566.495 202.417 566.742 202.394C566.988 202.37 567.234 202.341 567.478 202.305C567.724 202.27 567.969 202.228 568.211 202.18C568.369 202.149 568.525 202.116 568.682 202.08L568.935 202.02C569.176 201.959 569.415 201.895 569.652 201.824C569.815 201.775 569.977 201.723 570.14 201.668L570.357 201.593C570.59 201.51 570.821 201.421 571.051 201.326C571.279 201.233 571.506 201.133 571.729 201.028C571.955 200.923 572.176 200.813 572.393 200.697C572.612 200.58 572.829 200.458 573.042 200.332C573.255 200.206 573.464 200.074 573.67 199.937C573.876 199.8 574.079 199.658 574.278 199.511C574.408 199.415 574.536 199.318 574.663 199.218L574.865 199.056C574.956 198.982 575.046 198.906 575.136 198.828C575.234 198.744 575.332 198.659 575.428 198.573C575.612 198.408 575.792 198.238 575.967 198.063C576.142 197.888 576.314 197.709 576.481 197.527C576.647 197.343 576.809 197.157 576.968 196.966C577.045 196.872 577.121 196.778 577.196 196.682C577.274 196.582 577.35 196.483 577.426 196.382C577.574 196.183 577.717 195.981 577.854 195.776C577.993 195.571 578.127 195.362 578.255 195.15C578.383 194.938 578.505 194.723 578.622 194.504C578.739 194.286 578.851 194.066 578.958 193.843L579.07 193.601C579.137 193.457 579.2 193.312 579.261 193.165C579.356 192.937 579.446 192.706 579.531 192.474C579.615 192.241 579.693 192.006 579.766 191.769C579.839 191.533 579.905 191.294 579.966 191.055C580.026 190.815 580.082 190.574 580.131 190.33C580.161 190.183 580.189 190.034 580.215 189.886C580.23 189.791 580.246 189.696 580.26 189.6C580.297 189.355 580.328 189.11 580.352 188.863L580.382 188.543C580.393 188.404 580.403 188.263 580.41 188.122C580.417 187.998 580.422 187.874 580.426 187.75C580.429 187.627 580.431 187.504 580.431 187.381C580.432 187.133 580.427 186.886 580.415 186.639C580.403 186.391 580.387 186.145 580.363 185.898C580.34 185.651 580.31 185.406 580.275 185.16C580.239 184.915 580.197 184.671 580.15 184.429C580.102 184.186 580.05 183.945 579.99 183.703C579.931 183.464 579.865 183.225 579.794 182.988C579.724 182.75 579.646 182.515 579.564 182.282C579.481 182.048 579.392 181.818 579.299 181.589C579.205 181.36 579.105 181.133 579 180.908C578.895 180.685 578.785 180.463 578.669 180.244C578.553 180.026 578.432 179.81 578.305 179.598C578.179 179.384 578.047 179.175 577.91 178.969C577.773 178.763 577.632 178.56 577.485 178.36C577.338 178.16 577.185 177.965 577.03 177.774C576.873 177.581 576.712 177.394 576.547 177.209C576.44 177.091 576.332 176.975 576.222 176.86C576.161 176.795 576.099 176.732 576.037 176.669C575.862 176.494 575.683 176.324 575.501 176.157C575.318 175.99 575.132 175.827 574.941 175.669C574.75 175.512 574.555 175.359 574.357 175.21C574.255 175.134 574.151 175.059 574.047 174.985C573.949 174.915 573.85 174.847 573.752 174.781C573.547 174.643 573.338 174.51 573.126 174.382C572.914 174.253 572.699 174.131 572.481 174.013C572.263 173.896 572.042 173.783 571.819 173.677C571.596 173.57 571.37 173.469 571.141 173.373C570.913 173.279 570.682 173.189 570.45 173.104C570.218 173.02 569.982 172.942 569.746 172.868C569.51 172.796 569.271 172.729 569.031 172.667C568.791 172.607 568.55 172.552 568.307 172.502C568.065 172.453 567.821 172.41 567.577 172.372C567.332 172.335 567.086 172.304 566.84 172.279C566.594 172.254 566.348 172.235 566.099 172.222C565.852 172.208 565.605 172.201 565.358 172.2C565.11 172.199 564.863 172.204 564.616 172.216Z" fill="#236842"/>
<path fill-rule="evenodd" clip-rule="evenodd" d="M585.714 368.946C573.316 368.719 560.546 368.487 548.237 369.147C547.181 369.809 545.966 370.224 545.653 371.551C544.814 375.105 545.156 390.759 545.387 401.38C545.463 404.888 545.528 407.847 545.534 409.639C545.562 418.079 545.459 426.548 545.357 435.024C545.178 449.714 545 464.425 545.501 479.033C545.58 481.318 545.775 483.568 546.742 485.667C550.655 488.362 596.714 487.248 604.092 485.918C614.602 484.023 623.097 479.014 631.152 472.189C642.953 460.916 648.363 445.981 648.822 429.858C649.27 414.11 644.368 397.719 633.34 386.163C621.528 373.783 605.172 369.293 588.501 368.996L585.714 368.946ZM574.683 392.5L572.925 392.513L572.907 463.573L575.108 463.581C588.894 463.641 601.162 463.694 612.269 453.995C619.275 446.024 622.279 436.288 621.544 425.702C620.901 416.429 617.453 406.907 610.267 400.721C600.454 392.273 586.955 392.391 574.683 392.5Z" fill="#132837"/>
<path fill-rule="evenodd" clip-rule="evenodd" d="M263.413 368.981C254.129 369.003 244.797 368.851 235.517 369.104C235.339 369.24 235.174 369.36 235.021 369.472C234.188 370.073 233.709 370.42 233.505 371.688C233.17 373.774 233.279 376.279 233.382 378.656C233.43 379.766 233.477 380.848 233.477 381.846L233.498 407.95L233.487 456.292C233.485 458.816 233.459 461.35 233.434 463.888C233.375 469.854 233.317 475.841 233.56 481.771C233.597 482.677 233.607 483.456 233.765 484.183C233.912 484.856 234.185 485.485 234.726 486.127C239.165 487.669 254.066 487.691 258.547 486.389C258.789 486.134 259.124 485.942 259.275 485.625C260.076 483.936 259.772 463.938 259.607 453.113C259.564 450.306 259.531 448.115 259.529 447.021L277.842 446.991C278.275 447.909 279.015 449.537 279.965 451.627C284.855 462.385 295.307 485.381 297.986 486.751C298.403 486.965 298.911 486.999 299.395 487.005L299.875 487.008C300.718 487.012 301.999 487.048 303.549 487.092C310.613 487.291 323.26 487.648 325.505 485.826C325.574 485.304 325.578 484.917 325.469 484.498C325.419 484.303 325.345 484.1 325.242 483.875C322.794 478.527 319.678 473.399 317.066 468.117C315.867 465.692 314.695 463.24 313.521 460.784C310.492 454.449 307.449 448.084 303.883 442.082C312.651 436.277 318.044 428.625 320.143 418.227C322.286 407.615 321.146 394.405 314.902 385.283C308.686 376.2 299.235 371.825 288.656 369.902C282.137 368.72 275.302 368.823 268.6 368.925C266.86 368.951 265.128 368.977 263.413 368.981ZM264.21 391.096C262.585 391.145 261.029 391.193 259.582 391.2L259.507 424.399C261.332 424.408 263.291 424.493 265.321 424.582C273.78 424.951 283.46 425.372 289.788 420.565C293.364 416.257 294.338 411.935 293.909 406.376C293.59 402.267 292.219 398.416 289.013 395.687C282.939 390.516 272.661 390.834 264.21 391.096Z" fill="#132837"/>
<path fill-rule="evenodd" clip-rule="evenodd" d="M775.289 369.239C768.179 368.143 759.866 368.999 752.646 369.152C750.696 370.338 750.015 371.304 749.088 373.383C746.52 379.14 744.428 385.233 742.354 391.273C741.524 393.685 740.699 396.088 739.848 398.458L722.949 445.581L713.305 472.499C712.007 476.113 710.002 480.169 709.258 483.893C709.084 484.761 709.039 485.176 709.295 485.998C712.794 487.693 723.128 487.312 730.008 487.058C731.727 486.994 733.23 486.939 734.357 486.926C737.592 480.19 739.792 473.064 741.992 465.94L742.438 464.492L778.25 464.528L786.676 464.507C787.039 465.459 787.534 466.905 788.118 468.611C790.229 474.784 793.504 484.361 795.953 486.284C799.676 487.54 817.649 487.672 821.064 486.06C821.237 485.979 821.392 485.864 821.557 485.766C821.762 484.393 821.233 482.869 820.765 481.518C820.7 481.332 820.637 481.151 820.577 480.973C814.983 464.408 808.727 447.967 802.48 431.555C799.453 423.599 796.429 415.651 793.483 407.699C792.813 405.892 791.884 403.214 790.804 400.105C787.352 390.164 782.368 375.816 779.467 371.397C778.491 369.91 776.975 369.498 775.289 369.239ZM775.528 430.161C771.609 418.289 766.338 402.321 764.301 400.343C762.326 405.896 760.492 411.54 758.657 417.19C755.926 425.599 753.191 434.018 749.982 442.158L767.125 442.129L779.604 442.111C778.812 440.108 777.31 435.558 775.528 430.161Z" fill="#132837"/>
<path fill-rule="evenodd" clip-rule="evenodd" d="M362.421 368.959C357.129 368.914 351.815 368.868 346.572 369.131C345.565 370.308 344.852 371.193 344.702 372.791C344.349 376.539 344.428 380.463 344.507 384.331C344.54 385.986 344.574 387.632 344.573 389.248L344.564 421.703L344.577 460.647C344.578 461.644 344.574 462.643 344.567 463.645C344.52 470.197 344.364 476.833 344.875 483.334C344.944 484.201 345.056 485.044 345.197 485.901C348.051 487.612 364.831 487.506 368.459 486.735C369.568 486.5 370.074 486.347 370.59 485.286C372.266 481.852 371.842 464.911 371.588 454.769C371.521 452.054 371.465 449.826 371.465 448.475L391.125 448.456C403.322 447.299 414.234 443.918 422.363 434.194C429.622 425.508 431.756 413.538 430.699 402.501C429.817 393.308 425.653 383.978 418.35 378.129C406.337 368.509 389.868 368.733 374.935 368.937C372.997 368.963 371.086 368.989 369.214 368.993C366.959 368.998 364.693 368.979 362.421 368.959ZM374.315 391.09C372.76 391.126 371.278 391.16 369.91 391.161L369.883 425.876C371.641 425.872 373.571 425.947 375.592 426.026C384.019 426.356 394.036 426.747 399.819 421.704C403.778 416.524 405.09 411.144 404.264 404.691C403.768 400.822 402.047 397.316 398.829 395.018C392.733 390.663 382.517 390.899 374.315 391.09Z" fill="#132837"/>
<path fill-rule="evenodd" clip-rule="evenodd" d="M154.036 368.993C152.661 369.047 151.501 369.092 150.675 369.104C147.181 370.706 146.255 374.849 145.008 378.215L120.658 445.873C119.262 449.756 117.76 453.666 116.25 457.594C113.142 465.685 110.005 473.852 107.704 482.015L107.654 482.191C107.272 483.54 107.018 484.435 107.403 485.84C110.44 487.28 127.72 487.751 131.086 486.638C132.476 486.178 133.159 484.709 133.747 483.446L133.811 483.305C135.869 478.89 137.396 473.967 138.884 469.172C139.376 467.583 139.864 466.009 140.366 464.471L175.75 464.521L184.637 464.498C184.861 465.157 185.176 466.141 185.556 467.335C187.514 473.468 191.231 485.115 193.633 486.409C196.56 487.986 215.215 487.098 218.693 486.058L219.253 485.343C218.677 481.634 217.137 477.826 215.658 474.17C215.162 472.944 214.674 471.735 214.23 470.552L204.944 445.81C201.816 437.475 198.785 429.083 195.752 420.685C190.285 405.551 184.812 390.4 178.762 375.547L178.576 375.085C177.97 373.575 177.177 371.596 176.033 370.615C173.267 368.241 160.939 368.723 154.036 368.993ZM174.05 433.451C169.973 421.342 163.416 401.855 161.821 400.322C156.915 414.179 152.273 428.126 147.898 442.16L163.25 442.13L177.019 442.157C176.487 440.693 175.406 437.48 174.05 433.451Z" fill="#132837"/>
<path d="M452.132 369.101C462.711 368.74 515.368 368.02 522.638 369.898C523.186 370.706 523.283 371.345 523.373 372.298C523.709 375.861 524.419 387.926 522.148 390.355C519.442 393.249 481.449 392.302 475.989 392.318L475.987 416.595C482.431 416.635 514.441 415.415 517.957 417.506C518.866 418.047 519.329 419.786 519.488 420.784C520.111 424.707 520.368 435.398 518.062 438.691C514.077 441.257 483.026 439.985 476.002 439.962L475.994 449.75L475.998 464.01C485.305 463.987 518.629 462.845 525.313 464.639C525.898 465.441 526.128 466.129 526.295 467.092C527.04 471.375 527.774 482.897 525.333 486.236C521.229 487.683 463.002 487.37 454.722 486.977C452.993 486.894 451.415 486.723 449.842 485.983C449.169 484.444 449.176 482.697 449.132 481.037C448.521 458.114 449.191 435.016 449.15 412.074C449.138 405.413 448.186 376.208 449.514 371.548C449.886 370.242 451.036 369.739 452.132 369.101Z" fill="#132837"/>
<path d="M56.3257 367.229C69.4437 366.741 81.6827 370.409 92.9647 376.934C92.7387 382.047 90.5907 395.173 87.1517 398.79C83.6597 399.713 69.7367 393.327 63.6457 392.75C55.2797 391.958 45.8567 393.822 39.3927 399.398C31.7997 405.949 28.3547 416.47 27.7797 426.224C27.1947 436.136 30.0657 446.925 36.7657 454.425C46.4927 465.312 62.6347 466.853 75.8097 461.942C79.7967 460.456 84.9407 457.039 89.1527 457.311C91.8147 459.004 92.7907 464.715 93.6837 467.697C94.3527 470.261 95.3387 473.123 95.5367 475.753C95.6617 477.425 95.3707 479.2 94.2077 480.475C90.1737 484.902 72.4627 489.018 66.3557 489.525C50.1987 490.865 32.1677 486.703 19.6567 476.015C7.56871 465.687 1.58131 450.253 0.349608 434.683C0.257408 433.601 0.192076 432.518 0.153609 431.434C0.115142 430.349 0.103545 429.264 0.118811 428.179C0.134078 427.093 0.176208 426.009 0.245208 424.927C0.314208 423.843 0.410007 422.762 0.532607 421.684C0.655207 420.606 0.804408 419.531 0.980208 418.46C1.15607 417.389 1.35835 416.323 1.58701 415.262C1.81568 414.201 2.07057 413.146 2.35171 412.098C2.63237 411.05 2.93905 410.009 3.27171 408.976C3.60438 407.942 3.96238 406.918 4.34571 405.903C4.72904 404.887 5.13704 403.882 5.56971 402.888C6.00304 401.892 6.46071 400.908 6.94271 399.936C7.42404 398.963 7.92971 398.003 8.45971 397.056C8.98904 396.108 9.54137 395.175 10.1167 394.255C10.6927 393.335 11.291 392.429 11.9117 391.539C12.5324 390.649 13.1747 389.774 13.8387 388.916C14.5027 388.057 15.1874 387.215 15.8927 386.391C26.4687 374.235 40.4717 368.376 56.3257 367.229Z" fill="#132837"/>
<path d="M669.576 369.115C674.614 369.03 689.387 367.635 693.275 370.572C695.019 376.519 694.008 390.998 694.009 398.08L693.986 447.51C693.981 459.333 694.817 472.578 693.959 484.264C693.858 485.647 693.402 486.083 692.403 486.962C686.409 487.004 673.026 488.214 667.988 486.085C667.189 484.411 667.331 481.755 667.299 479.902C666.878 455.834 667.31 431.698 667.277 407.622L667.251 383.648C667.249 380.021 666.863 375.866 667.385 372.297C667.617 370.717 668.429 370.089 669.576 369.115Z" fill="#132837"/>
</svg>
